<svg xmlns="http://www.w3.org/2000/svg" width="700" height="400"><rect width="700" height="400" fill="white"/><text x="350" y="30" font-size="16" text-anchor="middle">Гистограмма (N=1180) и плотность f(x)=1</text><rect x="60.0" y="139.1" width="60.0" height="200.9" fill="#6fa8dc" stroke="black"/><text x="90.0" y="134.1" font-size="12" text-anchor="middle">127</text><text x="60.0" y="358.0" font-size="12" text-anchor="middle">0.0</text><rect x="120.0" y="173.9" width="60.0" height="166.1" fill="#6fa8dc" stroke="black"/><text x="150.0" y="168.9" font-size="12" text-anchor="middle">105</text><text x="120.0" y="358.0" font-size="12" text-anchor="middle">0.1</text><rect x="180.0" y="167.6" width="60.0" height="172.4" fill="#6fa8dc" stroke="black"/><text x="210.0" y="162.6" font-size="12" text-anchor="middle">109</text><text x="180.0" y="358.0" font-size="12" text-anchor="middle">0.2</text><rect x="240.0" y="148.6" width="60.0" height="191.4" fill="#6fa8dc" stroke="black"/><text x="270.0" y="143.6" font-size="12" text-anchor="middle">121</text><text x="240.0" y="358.0" font-size="12" text-anchor="middle">0.3</text><rect x="300.0" y="134.4" width="60.0" height="205.6" fill="#6fa8dc" stroke="black"/><text x="330.0" y="129.4" font-size="12" text-anchor="middle">130</text><text x="300.0" y="358.0" font-size="12" text-anchor="middle">0.4</text><rect x="360.0" y="167.6" width="60.0" height="172.4" fill="#6fa8dc" stroke="black"/><text x="390.0" y="162.6" font-size="12" text-anchor="middle">109</text><text x="360.0" y="358.0" font-size="12" text-anchor="middle">0.5</text><rect x="420.0" y="135.9" width="60.0" height="204.1" fill="#6fa8dc" stroke="black"/><text x="450.0" y="130.9" font-size="12" text-anchor="middle">129</text><text x="420.0" y="358.0" font-size="12" text-anchor="middle">0.6</text><rect x="480.0" y="167.6" width="60.0" height="172.4" fill="#6fa8dc" stroke="black"/><text x="510.0" y="162.6" font-size="12" text-anchor="middle">109</text><text x="480.0" y="358.0" font-size="12" text-anchor="middle">0.7</text><rect x="540.0" y="154.9" width="60.0" height="185.1" fill="#6fa8dc" stroke="black"/><text x="570.0" y="149.9" font-size="12" text-anchor="middle">117</text><text x="540.0" y="358.0" font-size="12" text-anchor="middle">0.8</text><rect x="600.0" y="143.8" width="60.0" height="196.2" fill="#6fa8dc" stroke="black"/><text x="630.0" y="138.8" font-size="12" text-anchor="middle">124</text><text x="600.0" y="358.0" font-size="12" text-anchor="middle">0.9</text><text x="660" y="358" font-size="12" text-anchor="middle">1.0</text><text x="50" y="344.0" font-size="12" text-anchor="end">0.0</text><text x="50" y="250.7" font-size="12" text-anchor="end">0.5</text><text x="50" y="157.3" font-size="12" text-anchor="end">1.0</text><text x="50" y="64.0" font-size="12" text-anchor="end">1.5</text><line x1="60" y1="153.3" x2="660" y2="153.3" stroke="red" stroke-width="2"/><text x="655" y="52" font-size="13" fill="red" text-anchor="end">— плотность f(x) = 1</text><line x1="60" y1="340.0" x2="660" y2="340.0" stroke="black"/><line x1="60" y1="60" x2="60" y2="340.0" stroke="black"/><text x="20" y="200" font-size="13">плотность</text></svg>