<svg xmlns="http://www.w3.org/2000/svg" width="700" height="400"><rect width="700" height="400" fill="white"/><text x="350" y="30" font-size="16" text-anchor="middle">Гистограмма (N=1180) и плотность f(x)=1</text><rect x="60.0" y="186.6" width="60.0" height="153.4" fill="#6fa8dc" stroke="black"/><text x="90.0" y="181.6" font-size="12" text-anchor="middle">97</text><text x="60.0" y="358.0" font-size="12" text-anchor="middle">0.0</text><rect x="120.0" y="162.8" width="60.0" height="177.2" fill="#6fa8dc" stroke="black"/><text x="150.0" y="157.8" font-size="12" text-anchor="middle">112</text><text x="120.0" y="358.0" font-size="12" text-anchor="middle">0.1</text><rect x="180.0" y="124.9" width="60.0" height="215.1" fill="#6fa8dc" stroke="black"/><text x="210.0" y="119.9" font-size="12" text-anchor="middle">136</text><text x="180.0" y="358.0" font-size="12" text-anchor="middle">0.2</text><rect x="240.0" y="169.2" width="60.0" height="170.8" fill="#6fa8dc" stroke="black"/><text x="270.0" y="164.2" font-size="12" text-anchor="middle">108</text><text x="240.0" y="358.0" font-size="12" text-anchor="middle">0.3</text><rect x="300.0" y="148.6" width="60.0" height="191.4" fill="#6fa8dc" stroke="black"/><text x="330.0" y="143.6" font-size="12" text-anchor="middle">121</text><text x="300.0" y="358.0" font-size="12" text-anchor="middle">0.4</text><rect x="360.0" y="150.2" width="60.0" height="189.8" fill="#6fa8dc" stroke="black"/><text x="390.0" y="145.2" font-size="12" text-anchor="middle">120</text><text x="360.0" y="358.0" font-size="12" text-anchor="middle">0.5</text><rect x="420.0" y="154.9" width="60.0" height="185.1" fill="#6fa8dc" stroke="black"/><text x="450.0" y="149.9" font-size="12" text-anchor="middle">117</text><text x="420.0" y="358.0" font-size="12" text-anchor="middle">0.6</text><rect x="480.0" y="128.0" width="60.0" height="212.0" fill="#6fa8dc" stroke="black"/><text x="510.0" y="123.0" font-size="12" text-anchor="middle">134</text><text x="480.0" y="358.0" font-size="12" text-anchor="middle">0.7</text><rect x="540.0" y="137.5" width="60.0" height="202.5" fill="#6fa8dc" stroke="black"/><text x="570.0" y="132.5" font-size="12" text-anchor="middle">128</text><text x="540.0" y="358.0" font-size="12" text-anchor="middle">0.8</text><rect x="600.0" y="170.7" width="60.0" height="169.3" fill="#6fa8dc" stroke="black"/><text x="630.0" y="165.7" font-size="12" text-anchor="middle">107</text><text x="600.0" y="358.0" font-size="12" text-anchor="middle">0.9</text><text x="660" y="358" font-size="12" text-anchor="middle">1.0</text><text x="50" y="344.0" font-size="12" text-anchor="end">0.0</text><text x="50" y="250.7" font-size="12" text-anchor="end">0.5</text><text x="50" y="157.3" font-size="12" text-anchor="end">1.0</text><text x="50" y="64.0" font-size="12" text-anchor="end">1.5</text><line x1="60" y1="153.3" x2="660" y2="153.3" stroke="red" stroke-width="2"/><text x="655" y="52" font-size="13" fill="red" text-anchor="end">— плотность f(x) = 1</text><line x1="60" y1="340.0" x2="660" y2="340.0" stroke="black"/><line x1="60" y1="60" x2="60" y2="340.0" stroke="black"/><text x="20" y="200" font-size="13">плотность</text></svg>